<svg xmlns="http://www.w3.org/2000/svg"><defs><pattern id="a" width="20.016" height="100" patternTransform="scale(2)" patternUnits="userSpaceOnUse"><rect width="100%" height="100%" fill="#2b2b31"/><path fill="#ecc94b" d="m10.145 72.989-.153-.07-.155.07L0 59.67v17.981l9.992 13.525 10.024-13.525v-17.98z"/><path fill="#f44034" d="m10.145 22.37-.153-.07-.155.07L0 9.053v17.98l9.992 13.525 10.024-13.525V9.053Z"/><path fill="#00bdd6" d="M0 0v1.724l9.992 13.525L20.016 1.724V0Zm10.145 47.68-.153-.07-.155.07L0 34.361v17.981l9.992 13.525 10.024-13.525v-17.98Zm0 50.618-.153-.069-.155.07L0 84.981V100h20.016V84.97z"/></pattern></defs><rect width="800%" height="800%" fill="url(#a)"/></svg>
