<svg xmlns="http://www.w3.org/2000/svg"><defs><pattern id="a" width="100" height="100" patternTransform="scale(2)" patternUnits="userSpaceOnUse"><rect width="100%" height="100%" fill="#2b2b31"/><path fill="#ecc94b" d="m25 91.36 2.6 6 6.52.6-4.92 4.3 1.44 6.38-5.6-3.36-5.62 3.36 1.44-6.4-4.92-4.3 6.54-.58zm70.84-64.08-1.46 6.36L100 30.3V16.36l-2.6 6-6.48.6zM0 16.36V30.3l5.6 3.34-1.44-6.36 4.92-4.3-6.5-.6zm50 50 2.6 6 6.52.6-4.92 4.3 1.44 6.38-5.6-3.36-5.62 3.36 1.44-6.4-4.92-4.3 6.54-.58zm-25-75 2.6 6 6.52.6-4.92 4.3 1.44 6.38-5.6-3.36-5.64 3.36 1.44-6.4-4.92-4.3 6.54-.58zm50 50 2.6 6 6.52.6-4.92 4.3 1.44 6.38-5.6-3.36-5.62 3.36 1.44-6.4-4.92-4.3 6.54-.58z"/><path fill="#f44034" d="m75 91.36 2.6 6 6.52.6-4.92 4.3 1.44 6.38-5.6-3.36-5.62 3.36 1.44-6.4-4.92-4.3 6.54-.58zm-25-75 2.6 6 6.52.6-4.92 4.3 1.44 6.38-5.6-3.36-5.62 3.36 1.44-6.4-4.92-4.3 6.54-.58zm50 63.94V66.36l-2.6 6-6.48.6 4.92 4.32-1.46 6.36zM5.6 83.64l-1.44-6.36 4.92-4.3-6.5-.6-2.58-6V80.3zM75-8.64l2.6 6 6.52.6-4.92 4.3 1.44 6.38-5.6-3.36-5.62 3.36 1.44-6.4-4.92-4.3 6.54-.58zm-50 50 2.6 6 6.52.6-4.92 4.3 1.44 6.38-5.6-3.36-5.62 3.36 1.44-6.4-4.92-4.3 6.54-.58z"/><path fill="#00bdd6" d="M68.76 69.24a.4.4 0 0 1-.32-.1l-1.2-1.2a.4.4 0 0 1 0-.58.4.4 0 0 1 .6 0l1.2 1.2a.4.4 0 0 1 0 .58c-.06.08-.18.1-.3.1zm-2.62-2.6a.4.4 0 0 1-.3-.12l-1.42-1.4a.4.4 0 0 1 0-.6.4.4 0 0 1 .58 0l1.4 1.42a.4.4 0 0 1 0 .6c-.04.08-.14.1-.26.1m-2.8-2.8a.4.4 0 0 1-.32-.12l-1.4-1.4a.4.4 0 0 1 0-.6.4.4 0 0 1 .58 0l1.4 1.4a.4.4 0 0 1 0 .6.6.6 0 0 1-.26.12M60.5 61a.4.4 0 0 1-.3-.12l-1.42-1.4a.4.4 0 0 1 0-.6.4.4 0 0 1 .6 0l1.4 1.42a.4.4 0 0 1 0 .6c-.08.04-.16.1-.28.1m-2.84-2.84a.4.4 0 0 1-.3-.1l-1.4-1.42a.4.4 0 0 1 0-.6.4.4 0 0 1 .56 0l1.42 1.44a.4.4 0 0 1-.28.68m23.6 11.08a.4.4 0 0 1-.3-.7l1.18-1.18a.4.4 0 0 1 .6 0 .4.4 0 0 1 0 .6l-1.2 1.18c-.06.08-.18.1-.3.1zm2.6-2.6a.4.4 0 0 1-.3-.7l1.4-1.4a.4.4 0 0 1 .6 0 .4.4 0 0 1 0 .58l-1.42 1.4a.4.4 0 0 1-.28.12m2.8-2.8a.4.4 0 0 1-.3-.7l1.4-1.4a.4.4 0 0 1 .6 0 .4.4 0 0 1 0 .56l-1.4 1.42a.42.42 0 0 1-.3.12M89.5 61a.4.4 0 0 1-.3-.7l1.4-1.4a.4.4 0 0 1 .6 0 .4.4 0 0 1 0 .58l-1.42 1.4a.42.42 0 0 1-.28.12m2.84-2.84a.4.4 0 0 1-.3-.7l1.4-1.4a.4.4 0 0 1 .6 0 .4.4 0 0 1 0 .58l-1.42 1.4a.42.42 0 0 1-.28.12m-36.1 36.08a.4.4 0 0 1-.3-.7l1.42-1.4a.4.4 0 0 1 .6 0 .4.4 0 0 1 0 .6l-1.44 1.4c-.04.08-.16.1-.28.1m2.84-2.82a.4.4 0 0 1-.3-.7l1.4-1.4a.4.4 0 0 1 .6 0 .4.4 0 0 1 0 .56l-1.4 1.42a.44.44 0 0 1-.3.12m2.84-2.84a.4.4 0 0 1-.3-.7l1.4-1.4a.4.4 0 0 1 .6 0 .4.4 0 0 1 0 .58l-1.42 1.4a.4.4 0 0 1-.28.12m2.8-2.8a.4.4 0 0 1-.3-.7l1.4-1.4a.4.4 0 0 1 .6 0 .4.4 0 0 1 0 .58L65 85.66a.42.42 0 0 1-.28.12m2.84-2.84a.4.4 0 0 1-.3-.7l1.2-1.2a.4.4 0 0 1 .56 0 .4.4 0 0 1 0 .6l-1.2 1.2a.42.42 0 0 1-.26.1m26.2 11.3a.4.4 0 0 1-.32-.1l-1.4-1.4a.4.4 0 0 1 0-.6.4.4 0 0 1 .58 0l1.4 1.4a.4.4 0 0 1 0 .6c-.04.08-.16.1-.26.1m-2.84-2.82a.4.4 0 0 1-.3-.12l-1.42-1.4a.4.4 0 0 1 0-.6.4.4 0 0 1 .58 0l1.4 1.42a.4.4 0 0 1 0 .6c-.04.06-.16.1-.26.1m-2.84-2.84a.4.4 0 0 1-.3-.1l-1.4-1.42a.4.4 0 0 1 0-.6.4.4 0 0 1 .56 0l1.42 1.42a.4.4 0 0 1 0 .6c-.06.08-.16.1-.28.1m-2.8-2.8a.4.4 0 0 1-.3-.12l-1.42-1.4a.4.4 0 0 1 0-.6.4.4 0 0 1 .58 0l1.4 1.42a.4.4 0 0 1 0 .6.6.6 0 0 1-.26.1m-2.84-2.84a.4.4 0 0 1-.3-.1l-1.2-1.2a.4.4 0 0 1 0-.6.4.4 0 0 1 .6 0l1.2 1.2a.4.4 0 0 1 0 .6c-.1.04-.2.1-.3.1m-63.68-13.7a.4.4 0 0 1-.32-.1l-1.2-1.2a.4.4 0 0 1 0-.58.4.4 0 0 1 .6 0l1.2 1.2a.4.4 0 0 1 0 .58c-.06.08-.18.1-.28.1m-2.62-2.6a.4.4 0 0 1-.3-.12l-1.42-1.4a.4.4 0 0 1 0-.6.4.4 0 0 1 .58 0l1.4 1.42a.4.4 0 0 1 0 .6c-.04.08-.14.1-.26.1m-2.8-2.8a.4.4 0 0 1-.32-.12l-1.4-1.4a.4.4 0 0 1 0-.6.4.4 0 0 1 .58 0l1.4 1.4a.4.4 0 0 1 0 .6.6.6 0 0 1-.26.12M10.5 61a.4.4 0 0 1-.3-.12l-1.42-1.4a.4.4 0 0 1 0-.6.4.4 0 0 1 .6 0l1.4 1.42a.4.4 0 0 1 0 .6c-.08.04-.16.1-.28.1m-2.84-2.84a.4.4 0 0 1-.3-.1l-1.4-1.42a.4.4 0 0 1 0-.6.4.4 0 0 1 .56 0l1.42 1.44a.4.4 0 0 1-.28.68m23.6 11.08a.4.4 0 0 1-.3-.7l1.18-1.18a.4.4 0 0 1 .6 0 .4.4 0 0 1 0 .6l-1.2 1.18c-.06.08-.18.1-.28.1m2.6-2.6a.4.4 0 0 1-.3-.7l1.4-1.4a.4.4 0 0 1 .6 0 .4.4 0 0 1 0 .58l-1.42 1.4a.4.4 0 0 1-.28.12m2.8-2.8a.4.4 0 0 1-.3-.7l1.4-1.4a.4.4 0 0 1 .6 0 .4.4 0 0 1 0 .56l-1.4 1.42a.42.42 0 0 1-.3.12M39.5 61a.4.4 0 0 1-.3-.7l1.4-1.4a.4.4 0 0 1 .6 0 .4.4 0 0 1 0 .58l-1.42 1.4a.42.42 0 0 1-.28.12m2.84-2.84a.4.4 0 0 1-.3-.7l1.4-1.4a.4.4 0 0 1 .6 0 .4.4 0 0 1 0 .58l-1.42 1.4a.42.42 0 0 1-.28.12M6.24 94.24a.4.4 0 0 1-.3-.7l1.42-1.4a.4.4 0 0 1 .6 0 .4.4 0 0 1 0 .6l-1.44 1.4c-.04.08-.16.1-.28.1m2.84-2.82a.4.4 0 0 1-.3-.7l1.4-1.4a.4.4 0 0 1 .6 0 .4.4 0 0 1 0 .56l-1.4 1.42a.44.44 0 0 1-.3.12m2.84-2.84a.4.4 0 0 1-.3-.7l1.4-1.4a.4.4 0 0 1 .6 0 .4.4 0 0 1 0 .58l-1.42 1.4a.4.4 0 0 1-.28.12m2.8-2.8a.4.4 0 0 1-.3-.7l1.4-1.4a.4.4 0 0 1 .6 0 .4.4 0 0 1 0 .58L15 85.66a.42.42 0 0 1-.28.12m2.84-2.84a.4.4 0 0 1-.3-.7l1.2-1.2a.4.4 0 0 1 .56 0 .4.4 0 0 1 0 .6l-1.2 1.2a.42.42 0 0 1-.26.1m26.2 11.3a.4.4 0 0 1-.32-.1l-1.4-1.4a.4.4 0 0 1 0-.6.4.4 0 0 1 .58 0l1.4 1.4a.4.4 0 0 1 0 .6c-.04.08-.16.1-.28.1zm-2.84-2.82a.4.4 0 0 1-.3-.12l-1.42-1.4a.4.4 0 0 1 0-.6.4.4 0 0 1 .58 0l1.4 1.42a.4.4 0 0 1 0 .6c-.04.06-.16.1-.26.1m-2.84-2.84a.4.4 0 0 1-.3-.1l-1.4-1.42a.4.4 0 0 1 0-.6.4.4 0 0 1 .56 0l1.42 1.42a.4.4 0 0 1 0 .6c-.06.08-.16.1-.28.1m-2.8-2.8a.4.4 0 0 1-.3-.12l-1.42-1.4a.4.4 0 0 1 0-.6.4.4 0 0 1 .58 0l1.4 1.42a.4.4 0 0 1 0 .6.6.6 0 0 1-.26.1m-2.84-2.84a.4.4 0 0 1-.3-.1l-1.2-1.2a.4.4 0 0 1 0-.6.4.4 0 0 1 .6 0l1.2 1.2a.4.4 0 0 1 0 .6c-.1.04-.2.1-.3.1m36.32-63.7a.4.4 0 0 1-.32-.1l-1.2-1.2a.4.4 0 0 1 0-.58.4.4 0 0 1 .6 0l1.2 1.2a.4.4 0 0 1 0 .58c-.06.08-.18.1-.3.1zm-2.62-2.6a.4.4 0 0 1-.3-.12l-1.42-1.4a.4.4 0 0 1 0-.6.4.4 0 0 1 .58 0l1.4 1.42a.4.4 0 0 1 0 .6c-.04.08-.14.1-.26.1m-2.8-2.8a.4.4 0 0 1-.32-.12l-1.4-1.4a.4.4 0 0 1 0-.6.4.4 0 0 1 .58 0l1.4 1.4a.4.4 0 0 1 0 .6.6.6 0 0 1-.26.12M60.5 11a.4.4 0 0 1-.3-.12l-1.42-1.4a.4.4 0 0 1 0-.6.4.4 0 0 1 .6 0l1.4 1.42a.4.4 0 0 1 0 .6c-.08.04-.16.1-.28.1m-2.84-2.84a.4.4 0 0 1-.3-.1l-1.4-1.42a.4.4 0 0 1 0-.6.4.4 0 0 1 .56 0l1.42 1.44a.4.4 0 0 1-.28.68m23.6 11.08a.4.4 0 0 1-.3-.7l1.18-1.18a.4.4 0 0 1 .6 0 .4.4 0 0 1 0 .6l-1.2 1.18c-.06.08-.18.1-.3.1zm2.6-2.6a.4.4 0 0 1-.3-.7l1.4-1.4a.4.4 0 0 1 .6 0 .4.4 0 0 1 0 .58l-1.42 1.4a.4.4 0 0 1-.28.12m2.8-2.8a.4.4 0 0 1-.3-.7l1.4-1.4a.4.4 0 0 1 .6 0 .4.4 0 0 1 0 .56l-1.4 1.42a.42.42 0 0 1-.3.12M89.5 11a.4.4 0 0 1-.3-.7l1.4-1.4a.4.4 0 0 1 .6 0 .4.4 0 0 1 0 .58l-1.42 1.4a.42.42 0 0 1-.28.12m2.84-2.84a.4.4 0 0 1-.3-.7l1.4-1.4a.4.4 0 0 1 .6 0 .4.4 0 0 1 0 .58l-1.42 1.4a.42.42 0 0 1-.28.12m-36.1 36.08a.4.4 0 0 1-.3-.7l1.42-1.4a.4.4 0 0 1 .6 0 .4.4 0 0 1 0 .6l-1.44 1.4c-.04.08-.16.1-.28.1m2.84-2.82a.4.4 0 0 1-.3-.7l1.4-1.4a.4.4 0 0 1 .6 0 .4.4 0 0 1 0 .56l-1.4 1.42a.44.44 0 0 1-.3.12m2.84-2.84a.4.4 0 0 1-.3-.7l1.4-1.4a.4.4 0 0 1 .6 0 .4.4 0 0 1 0 .58l-1.42 1.4a.4.4 0 0 1-.28.12m2.8-2.8a.4.4 0 0 1-.3-.7l1.4-1.4a.4.4 0 0 1 .6 0 .4.4 0 0 1 0 .58L65 35.66a.42.42 0 0 1-.28.12m2.84-2.84a.4.4 0 0 1-.3-.7l1.2-1.2a.4.4 0 0 1 .56 0 .4.4 0 0 1 0 .6l-1.2 1.2a.42.42 0 0 1-.26.1m26.2 11.3a.4.4 0 0 1-.32-.1l-1.4-1.4a.4.4 0 0 1 0-.6.4.4 0 0 1 .58 0l1.4 1.4a.4.4 0 0 1 0 .6c-.04.08-.16.1-.26.1m-2.84-2.82a.4.4 0 0 1-.3-.12l-1.42-1.4a.4.4 0 0 1 0-.6.4.4 0 0 1 .58 0l1.4 1.42a.4.4 0 0 1 0 .6c-.04.06-.16.1-.26.1m-2.84-2.84a.4.4 0 0 1-.3-.1l-1.4-1.42a.4.4 0 0 1 0-.6.4.4 0 0 1 .56 0l1.42 1.42a.4.4 0 0 1 0 .6c-.06.08-.16.1-.28.1m-2.8-2.8a.4.4 0 0 1-.3-.12l-1.42-1.4a.4.4 0 0 1 0-.6.4.4 0 0 1 .58 0l1.4 1.42a.4.4 0 0 1 0 .6.6.6 0 0 1-.26.1m-2.84-2.84a.4.4 0 0 1-.3-.1l-1.2-1.2a.4.4 0 0 1 0-.6.4.4 0 0 1 .6 0l1.2 1.2a.4.4 0 0 1 0 .6c-.1.04-.2.1-.3.1m-63.68-13.7a.4.4 0 0 1-.32-.1l-1.2-1.2a.4.4 0 0 1 0-.58.4.4 0 0 1 .6 0l1.2 1.2a.4.4 0 0 1 0 .58c-.06.08-.18.1-.28.1m-2.62-2.6a.4.4 0 0 1-.3-.12l-1.42-1.4a.4.4 0 0 1 0-.6.4.4 0 0 1 .58 0l1.4 1.42a.4.4 0 0 1 0 .6c-.04.08-.14.1-.26.1m-2.8-2.8a.4.4 0 0 1-.32-.12l-1.4-1.4a.4.4 0 0 1 0-.6.4.4 0 0 1 .58 0l1.4 1.4a.4.4 0 0 1 0 .6.6.6 0 0 1-.26.12M10.5 11a.4.4 0 0 1-.3-.12l-1.42-1.4a.4.4 0 0 1 0-.6.4.4 0 0 1 .6 0l1.4 1.42a.4.4 0 0 1 0 .6c-.08.04-.16.1-.28.1M7.66 8.16a.4.4 0 0 1-.3-.1l-1.4-1.42a.4.4 0 0 1 0-.6.4.4 0 0 1 .56 0l1.42 1.44a.4.4 0 0 1-.28.68m23.6 11.08a.4.4 0 0 1-.3-.7l1.18-1.18a.4.4 0 0 1 .6 0 .4.4 0 0 1 0 .6l-1.2 1.18c-.06.08-.18.1-.28.1m2.6-2.6a.4.4 0 0 1-.3-.7l1.4-1.4a.4.4 0 0 1 .6 0 .4.4 0 0 1 0 .58l-1.42 1.4a.4.4 0 0 1-.28.12m2.8-2.8a.4.4 0 0 1-.3-.7l1.4-1.4a.4.4 0 0 1 .6 0 .4.4 0 0 1 0 .56l-1.4 1.42a.42.42 0 0 1-.3.12M39.5 11a.4.4 0 0 1-.3-.7l1.4-1.4a.4.4 0 0 1 .6 0 .4.4 0 0 1 0 .58l-1.42 1.4a.42.42 0 0 1-.28.12m2.84-2.84a.4.4 0 0 1-.3-.7l1.4-1.4a.4.4 0 0 1 .6 0 .4.4 0 0 1 0 .58l-1.42 1.4a.42.42 0 0 1-.28.12M6.24 44.24a.4.4 0 0 1-.3-.7l1.42-1.4a.4.4 0 0 1 .6 0 .4.4 0 0 1 0 .6l-1.44 1.4c-.04.08-.16.1-.28.1m2.84-2.82a.4.4 0 0 1-.3-.7l1.4-1.4a.4.4 0 0 1 .6 0 .4.4 0 0 1 0 .56l-1.4 1.42a.44.44 0 0 1-.3.12m2.84-2.84a.4.4 0 0 1-.3-.7l1.4-1.4a.4.4 0 0 1 .6 0 .4.4 0 0 1 0 .58l-1.42 1.4a.4.4 0 0 1-.28.12m2.8-2.8a.4.4 0 0 1-.3-.7l1.4-1.4a.4.4 0 0 1 .6 0 .4.4 0 0 1 0 .58L15 35.66a.42.42 0 0 1-.28.12m2.84-2.84a.4.4 0 0 1-.3-.7l1.2-1.2a.4.4 0 0 1 .56 0 .4.4 0 0 1 0 .6l-1.2 1.2a.42.42 0 0 1-.26.1m26.2 11.3a.4.4 0 0 1-.32-.1l-1.4-1.4a.4.4 0 0 1 0-.6.4.4 0 0 1 .58 0l1.4 1.4a.4.4 0 0 1 0 .6c-.04.08-.16.1-.28.1zm-2.84-2.82a.4.4 0 0 1-.3-.12l-1.42-1.4a.4.4 0 0 1 0-.6.4.4 0 0 1 .58 0l1.4 1.42a.4.4 0 0 1 0 .6c-.04.06-.16.1-.26.1m-2.84-2.84a.4.4 0 0 1-.3-.1l-1.4-1.42a.4.4 0 0 1 0-.6.4.4 0 0 1 .56 0l1.42 1.42a.4.4 0 0 1 0 .6c-.06.08-.16.1-.28.1m-2.8-2.8a.4.4 0 0 1-.3-.12l-1.42-1.4a.4.4 0 0 1 0-.6.4.4 0 0 1 .58 0l1.4 1.42a.4.4 0 0 1 0 .6.6.6 0 0 1-.26.1m-2.84-2.84a.4.4 0 0 1-.3-.1l-1.2-1.2a.4.4 0 0 1 0-.6.4.4 0 0 1 .6 0l1.2 1.2a.4.4 0 0 1 0 .6c-.1.04-.2.1-.3.1m18.68 65.68 3.26.26-2.46 2.18.72 3.2-2.8-1.7-2.8 1.68.7-3.2-2.46-2.16 3.28-.26 1.28-3.04zM100 95.74l-1.28 3.04-3.28.28 2.48 2.16-.72 3.2 2.8-1.7zm-97.36 8.5-.72-3.2 2.46-2.16-3.26-.26L0 95.98v6.68zm73.48-80.62 3.26.26-2.46 2.18.72 3.2-2.8-1.7-2.8 1.68.72-3.2-2.48-2.16 3.28-.26 1.28-3.04zm-50 0 3.26.26-2.46 2.18.72 3.2-2.8-1.7-2.8 1.68.72-3.2-2.48-2.16 3.28-.26 1.28-3.04zm50 50 3.26.26-2.46 2.18.72 3.2-2.8-1.7-2.8 1.68.72-3.2-2.48-2.16 3.28-.26 1.28-3.04zm-50 0 3.26.26-2.46 2.18.72 3.2-2.8-1.7-2.8 1.68.72-3.2-2.48-2.16 3.28-.26 1.28-3.04zm25-75.02 3.26.26-2.46 2.2.72 3.2-2.8-1.7-2.8 1.68.7-3.2-2.46-2.16 3.28-.26 1.28-3.04zM100-4.26 98.72-1.2l-3.28.28 2.48 2.12-.72 3.2 2.8-1.7zM2.64 4.24l-.72-3.2L4.38-1.1l-3.26-.28L0-4.02v6.68zm48.48 44.38 3.26.26-2.46 2.18.72 3.2-2.8-1.7-2.8 1.68.7-3.2-2.46-2.16 3.28-.26 1.28-3.04zM100 45.74l-1.28 3.04-3.28.28 2.48 2.16-.72 3.2 2.8-1.7zm-97.36 8.5-.72-3.2 2.46-2.16-3.26-.26L0 45.98v6.68z"/></pattern></defs><rect width="800%" height="800%" fill="url(#a)"/></svg>
