<svg xmlns="http://www.w3.org/2000/svg"><defs><pattern id="a" width="30" height="60" patternTransform="scale(2)" patternUnits="userSpaceOnUse"><rect width="100%" height="100%" fill="#2b2b31"/><path fill="#ecc94b" d="M9.27 0 0 6.48v23.49l15 10V60h5.16L30 53.46V29.97L15 19.96V0Zm5.83 0L30 9.9V6.48L20.26 0ZM15 23.4l9.9 6.57-9.9 6.58-9.9-6.58ZM0 50.1v3.36l9.22 6.48.1.06h5.6l-.1-.06z"/><path fill="#f44034" d="M0 0v3.4L5 0zm24.48 0L30 3.4V0zM15 26.2l-5.68 3.77L15 33.73l5.68-3.76Zm15 30.2L24.48 60H30Zm-30 0V60h5z"/></pattern></defs><rect width="800%" height="800%" fill="url(#a)"/></svg>

