<svg xmlns="http://www.w3.org/2000/svg"><defs><pattern id="a" width="65" height="65" patternTransform="scale(2)" patternUnits="userSpaceOnUse"><rect width="100%" height="100%" fill="#2b2b31"/><path fill="#ecc94b" d="M.5.5v12h12V.5zm13 13v12h12v-12zm-13 13v12h12v-12zm26 13v12h12v-12zm13 13v12h12v-12z"/><path fill="#f44034" d="M26.5.5v12h12V.5zm0 13v12h12v-12zm13 13v12h12v-12zm-39 13v12h12v-12zm0 13v12h12v-12z"/><path fill="#00bdd6" d="M13.5.5v12h12V.5zm39 13v12h12v-12zm-39 13v12h12v-12zm39 0v12h12v-12zm-26 26v12h12v-12z"/><path fill="#8059d4" d="M52.5.5v12h12V.5zm-13 13v12h12v-12zm0 26v12h12v-12zm13 0v12h12v-12zm-39 13v12h12v-12z"/></pattern></defs><rect width="800%" height="800%" fill="url(#a)"/></svg>
