<svg xmlns="http://www.w3.org/2000/svg"><defs><pattern id="a" width="40" height="40" patternTransform="scale(2)" patternUnits="userSpaceOnUse"><rect width="100%" height="100%" fill="#2b2b31"/><path fill="#ecc94b" d="M30 25c-1.108 0-2 .892-2 2v1h-1c-1.108 0-2 .892-2 2s.892 2 2 2h1v1c0 1.108.892 2 2 2s2-.892 2-2v-1h1c1.108 0 2-.892 2-2s-.892-2-2-2h-1v-1c0-1.108-.892-2-2-2M10 5c-1.108 0-2 .892-2 2v1H7c-1.108 0-2 .892-2 2s.892 2 2 2h1v1c0 1.108.892 2 2 2s2-.892 2-2v-1h1c1.108 0 2-.892 2-2s-.892-2-2-2h-1V7c0-1.108-.892-2-2-2m10 15h20v20H20zM0 0h20v20H0z"/><path fill="#f44034" d="M10 25c-1.108 0-2 .892-2 2v1H7c-1.108 0-2 .892-2 2s.892 2 2 2h1v1c0 1.108.892 2 2 2s2-.892 2-2v-1h1c1.108 0 2-.892 2-2s-.892-2-2-2h-1v-1c0-1.108-.892-2-2-2M30 5c-1.108 0-2 .892-2 2v1h-1c-1.108 0-2 .892-2 2s.892 2 2 2h1v1c0 1.108.892 2 2 2s2-.892 2-2v-1h1c1.108 0 2-.892 2-2s-.892-2-2-2h-1V7c0-1.108-.892-2-2-2"/></pattern></defs><rect width="800%" height="800%" fill="url(#a)"/></svg>
