<svg xmlns="http://www.w3.org/2000/svg"><defs><pattern id="a" width="50" height="50" patternTransform="scale(2)" patternUnits="userSpaceOnUse"><rect width="100%" height="100%" fill="#2b2b31"/><path fill="#ecc94b" d="m25 50-7.187-7.187L10.625 50zm0 0 7.188-7.187L39.375 50zm0-50-7.187 7.187L10.625 0zm0 0 7.188 7.187L39.375 0zM0 25l7.187 7.187L0 39.375zm0 0 7.187-7.188L0 10.625zm50 0-7.187 7.187L50 39.375zm0 0-7.187-7.188L50 10.625z"/><path fill="#f44034" d="M0 3.542V0h3.542L14.27 10.73l-3.542 3.54zM50 0h-3.542L35.73 10.73l3.542 3.54L50 3.543zM0 46.458V50h3.542L14.27 39.27l-3.542-3.54zM50 50h-3.542L35.73 39.27l3.542-3.54L50 46.457z"/><path fill="#00bdd6" d="m25 21.458-7.083-7.083-3.542 3.542L21.458 25l-7.083 7.083 3.542 3.542L25 28.542l7.083 7.083 3.542-3.542L28.542 25l7.083-7.083-3.542-3.542z"/><path fill="#8059d4" d="M21.458 39.167 25 35.625l3.542 3.542L25 42.708zm0-28.334L25 7.292l3.542 3.541L25 14.375zM35.625 25l3.542-3.542L42.708 25l-3.541 3.542zM7.292 25l3.541-3.542L14.375 25l-3.542 3.542z"/></pattern></defs><rect width="800%" height="800%" fill="url(#a)"/></svg>
