<svg xmlns="http://www.w3.org/2000/svg"><defs><pattern id="a" width="60" height="60" patternTransform="scale(2)" patternUnits="userSpaceOnUse"><rect width="100%" height="100%" fill="#2b2b31"/><path fill="#ecc94b" d="M60 60h5v5h-5zm-30-5h5v5h-5zm5 5h5v5h-5zm25-25h5v5h-5zm-5-5h5v5h-5zM25 60h5v5h-5zM0 60h5v5H0zm0-25h5v5H0zm5-5h5v5H5zm55-5h5v5h-5zm0-25h5v5h-5zM30 5h5v5h-5zm5-5h5v5h-5zM0 25h5v5H0zM25 0h5v5h-5zM0 0h5v5H0z"/><path fill="#f44034" d="M40 50h5v5h-5zm5-5h5v5h-5zm5-5h5v5h-5zm-15 5h5v5h-5zm-5-5h5v5h-5zm10-10h5v5h-5zm5 5h5v5h-5zm-10 0h5v5h-5zM20 50h5v5h-5zm5-5h5v5h-5zm-10 0h5v5h-5zm-5-5h5v5h-5zm10-10h5v5h-5zm5 5h5v5h-5zm-10 0h5v5h-5zm30-10h5v5h-5zm5-5h5v5h-5zm-15 5h5v5h-5zm-5-5h5v5h-5zm10-10h5v5h-5zm5 5h5v5h-5zm-10 0h5v5h-5zM25 25h5v5h-5zm-10 0h5v5h-5zm-5-5h5v5h-5zm10-10h5v5h-5zm5 5h5v5h-5zm-10 0h5v5h-5z"/><path fill="#00bdd6" d="M60 45h5v5h-5zm-5 5h5v5h-5zm-5 5h5v5h-5zm-5 5h5v5h-5zM0 45h5v5H0zm5 5h5v5H5zm5 5h5v5h-5zm5 5h5v5h-5zm45-45h5v5h-5zm-5-5h5v5h-5zm-5-5h5v5h-5zm-5-5h5v5h-5zM0 15h5v5H0zm5-5h5v5H5zm5-5h5v5h-5zm5-5h5v5h-5z"/></pattern></defs><rect width="800%" height="800%" fill="url(#a)"/></svg>
